<svg width="43" height="42" viewBox="0 0 43 42" fill="none" xmlns="http://www.w3.org/2000/svg">
<path fill-rule="evenodd" clip-rule="evenodd" d="M21.5 6.125C13.2978 6.125 6.625 12.7978 6.625 21C6.625 29.2022 13.2978 35.875 21.5 35.875C29.7022 35.875 36.375 29.2022 36.375 21C36.375 12.7978 29.7022 6.125 21.5 6.125ZM21.5 38.5C11.8505 38.5 4 30.6495 4 21C4 11.3505 11.8505 3.5 21.5 3.5C31.1495 3.5 39 11.3505 39 21C39 30.6495 31.1495 38.5 21.5 38.5Z" fill="#434343"/>
<path fill-rule="evenodd" clip-rule="evenodd" d="M18.9775 28.3863C18.6415 28.3863 18.3038 28.2586 18.0483 27.9996C17.5373 27.4851 17.539 26.6556 18.0518 26.1446L23.2178 20.9996L18.0518 15.8563C17.539 15.3453 17.5373 14.5141 18.0483 13.9996C18.5593 13.4833 19.3888 13.4868 19.9033 13.9961L26.0038 20.0703C26.2505 20.3171 26.3888 20.6513 26.3888 20.9996C26.3888 21.3496 26.2505 21.6838 26.0038 21.9306L19.9033 28.0031C19.6478 28.2586 19.3118 28.3863 18.9775 28.3863Z" fill="#434343"/>
</svg>
