<svg width="43" height="42" viewBox="0 0 43 42" fill="none" xmlns="http://www.w3.org/2000/svg">
<path fill-rule="evenodd" clip-rule="evenodd" d="M21.5 6.125C29.7022 6.125 36.375 12.7978 36.375 21C36.375 29.2022 29.7022 35.875 21.5 35.875C13.2978 35.875 6.625 29.2022 6.625 21C6.625 12.7978 13.2978 6.125 21.5 6.125ZM21.5 38.5C31.1495 38.5 39 30.6495 39 21C39 11.3505 31.1495 3.5 21.5 3.5C11.8505 3.5 4 11.3505 4 21C4 30.6495 11.8505 38.5 21.5 38.5Z" fill="#434343"/>
<path fill-rule="evenodd" clip-rule="evenodd" d="M24.0225 28.3863C24.3585 28.3863 24.6962 28.2586 24.9517 27.9996C25.4627 27.4851 25.461 26.6556 24.9482 26.1446L19.7822 20.9996L24.9482 15.8563C25.461 15.3453 25.4627 14.5141 24.9517 13.9996C24.4407 13.4833 23.6112 13.4868 23.0967 13.9961L16.9962 20.0703C16.7495 20.3171 16.6112 20.6513 16.6112 20.9996C16.6112 21.3496 16.7495 21.6838 16.9962 21.9306L23.0967 28.0031C23.3522 28.2586 23.6882 28.3863 24.0225 28.3863Z" fill="#434343"/>
</svg>
